# xmcd CD database file
#
# Track frame offsets:
#	150
#	27532
#	57776
#	79846
#	104246
#	128161
#	152574
#	178955
#	203911
#	233669
#	254820
#	276611
#	297311
#	314016
#
# Disc length: 4579 seconds
#
# Revision: 0
# Processed by: cddbd v1.5.1PL2 Copyright (c) Steve Scherf et al.
# Submitted via: CDex 1.51
#
DISCID=e011e10e
DTITLE=CHAGE and ASKA - CONCERT TOUR 2004 two-five
DYEAR=2006
DGENRE=JPop
TTITLE0=On Your Mark
TTITLE1=ripple ring
TTITLE2=36度線-1995夏-
TTITLE3=僕はMusic
TTITLE4=LOVE SONG
TTITLE5=crossroad〜いまを生きる僕を〜
TTITLE6=心に花の咲く方へ
TTITLE7=光の羅針盤
TTITLE8=NとLの野球帽
TTITLE9=青春の鼓動
TTITLE10=YAH YAH YAH
TTITLE11=not at all
TTITLE12=ripple ring〜Reprise〜
TTITLE13=WALK
EXTD=YEAR: 2006
EXTT0=
EXTT1=
EXTT2=
EXTT3=
EXTT4=
EXTT5=
EXTT6=
EXTT7=
EXTT8=
EXTT9=
EXTT10=
EXTT11=
EXTT12=
EXTT13=
PLAYORDER=
